<svg width="280" height="280" viewBox="0 0 280 280" fill="none" xmlns="http://www.w3.org/2000/svg">
  <!-- Body -->
  <circle cx="140" cy="140" r="100" fill="#FFB6C1" />
  
  <!-- Face -->
  <circle cx="140" cy="140" r="80" fill="#FFF5E1" />
  
  <!-- Eyes -->
  <ellipse cx="110" cy="120" rx="15" ry="20" fill="white" />
  <ellipse cx="170" cy="120" rx="15" ry="20" fill="white" />
  
  <!-- Pupils -->
  <circle cx="110" cy="120" r="8" fill="#4B5563">
    <animate attributeName="cy" values="120;118;120;122;120" dur="3s" repeatCount="indefinite" />
  </circle>
  <circle cx="170" cy="120" r="8" fill="#4B5563">
    <animate attributeName="cy" values="120;118;120;122;120" dur="3s" repeatCount="indefinite" />
  </circle>
  
  <!-- Eyebrows -->
  <path d="M95 100 Q110 90 125 100" stroke="#4B5563" stroke-width="4" stroke-linecap="round" />
  <path d="M155 100 Q170 90 185 100" stroke="#4B5563" stroke-width="4" stroke-linecap="round" />
  
  <!-- Mouth -->
  <path d="M110 170 Q140 190 170 170" stroke="#4B5563" stroke-width="4" stroke-linecap="round" fill="none">
    <animate attributeName="d" values="M110 170 Q140 190 170 170;M110 180 Q140 200 170 180;M110 170 Q140 190 170 170" dur="5s" repeatCount="indefinite" />
  </path>
  
  <!-- Cheeks -->
  <circle cx="100" cy="150" r="10" fill="#FFAFAF" opacity="0.6" />
  <circle cx="180" cy="150" r="10" fill="#FFAFAF" opacity="0.6" />
  
  <!-- Hat -->
  <path d="M80 80 L140 30 L200 80" fill="#9333EA" />
  <path d="M70 80 Q140 100 210 80" fill="#9333EA" />
  
  <!-- Hat Pom-pom -->
  <circle cx="140" cy="30" r="10" fill="#FFF5E1" />
  
  <!-- Magic wand -->
  <line x1="210" y1="140" x2="260" y2="100" stroke="#FFC107" stroke-width="6" stroke-linecap="round" />
  <circle cx="265" cy="95" r="10" fill="#FFC107">
    <animate attributeName="opacity" values="1;0.5;1" dur="2s" repeatCount="indefinite" />
  </circle>
  
  <!-- Magic sparkles -->
  <circle cx="250" cy="85" r="3" fill="white">
    <animate attributeName="r" values="2;4;2" dur="1.5s" repeatCount="indefinite" />
  </circle>
  <circle cx="270" cy="80" r="2" fill="white">
    <animate attributeName="r" values="1;3;1" dur="2s" repeatCount="indefinite" />
  </circle>
  <circle cx="265" cy="110" r="2" fill="white">
    <animate attributeName="r" values="1;3;1" dur="1.8s" repeatCount="indefinite" />
  </circle>
</svg>
